<svg xmlns="http://www.w3.org/2000/svg" viewBox="0 0 54.474 54.428"><path d="M47.305 0H7.236C2.46 0 0 2.516 0 7.28v40c0 4.607 2.54 7.146 7 7.146h40.26c4.652 0 7.213-2.54 7.213-7.213V7.135C54.518 2.516 51.957 0 47.305 0zm-4.418 6.15c5.4 0 5.4 0 5.4 5.4s0 5.3-5.3 5.3-5.357 0-5.357-5.357.001-5.333 5.257-5.333zm-15.59 10.5c4.26.037 8.08 2.637 9.677 6.588s.654 8.475-2.386 11.46-7.58 3.846-11.502 2.18-6.453-5.533-6.413-9.794a10.77 10.77 0 0 1 10.624-10.433zm20.99 28.327c0 2.54-.7 3.265-3.232 3.265H9.44c-2.483 0-3.187-.727-3.187-3.265l-.1-19.85c0-1.856.526-2.293 2.237-2.237 2.494.2 2.54.09 2.237 2.516-.92 8.556 4.782 16.42 13.2 18.206 8.512 1.653 16.9-3.383 19.442-11.673.746-2.542.876-5.225.38-7.828-.2-.962 0-1.118.883-1.118 3.758-.28 3.758-.347 3.758 3.523z" fill="#fa7337" fill-rule="evenodd"/></svg>