<svg xmlns="http://www.w3.org/2000/svg" viewBox="0 0 53.694 44.019"><path d="M0 39.116a23.96 23.96 0 0 0 11.547-1.981c1.658-.72 3.215-1.65 4.632-2.773-1.666-.045-3.3-.455-4.792-1.2-2.43-1.24-4.306-3.35-5.255-5.907-.236-.594-.236-.594.415-.557 1.358.237 2.752.143 4.066-.274a10.69 10.69 0 0 1-2.594-1 11.17 11.17 0 0 1-5.99-9.433c0-.49.1-.557.557-.34a11.2 11.2 0 0 0 4.339 1.2l-1.887-1.707A11.32 11.32 0 0 1 3.3 2.589c.274-.528.368-.528.745-.094a31.5 31.5 0 0 0 19.284 10.773l2.453.32c.557.075.613-.18.528-.594-.824-4.71 1.465-9.416 5.678-11.677s9.4-1.566 12.87 1.724c.322.313.788.425 1.217.292a22.03 22.03 0 0 0 5.849-2.273c.172-.074.332-.175.472-.3-.773 2.532-2.43 4.7-4.67 6.113a22.4 22.4 0 0 0 5.962-1.539c.047.274-.15.434-.274.632-1.277 1.802-2.827 3.393-4.594 4.717a1.01 1.01 0 0 0-.415.943c.174 7.87-2.54 15.532-7.632 21.537a29.94 29.94 0 0 1-18.5 10.377c-7.618 1.345-15.464-.167-22.036-4.246A.6.6 0 0 0 0 39.116z" fill="#fa7337" fill-rule="evenodd"/></svg>